<svg width="20" height="20" viewBox="0 0 20 20" fill="none" xmlns="http://www.w3.org/2000/svg">
<path fill-rule="evenodd" clip-rule="evenodd" d="M8.04102 8.04169V3.70835H3.70768V8.04169H8.04102ZM2.95768 2.54169H8.79102C9.02435 2.54169 9.20768 2.72502 9.20768 2.95835V8.79169C9.20768 9.02502 9.02435 9.20835 8.79102 9.20835H2.95768C2.72435 9.20835 2.54102 9.02502 2.54102 8.79169V2.95835C2.54102 2.72502 2.72435 2.54169 2.95768 2.54169ZM16.3743 8.04169V3.70835H12.041V8.04169H16.3743ZM11.291 2.54169H17.1243C17.3577 2.54169 17.541 2.72502 17.541 2.95835V8.79169C17.541 9.02502 17.3577 9.20835 17.1243 9.20835H11.291C11.0577 9.20835 10.8743 9.02502 10.8743 8.79169V2.95835C10.8743 2.72502 11.0577 2.54169 11.291 2.54169ZM16.3743 12.0417V16.375H12.041V12.0417H16.3743ZM17.1243 10.875H11.291C11.0577 10.875 10.8743 11.0584 10.8743 11.2917V17.125C10.8743 17.3584 11.0577 17.5417 11.291 17.5417H17.1243C17.3577 17.5417 17.541 17.3584 17.541 17.125V11.2917C17.541 11.0584 17.3577 10.875 17.1243 10.875ZM8.04102 16.375V12.0417H3.70768V16.375H8.04102ZM2.95768 10.875H8.79102C9.02435 10.875 9.20768 11.0584 9.20768 11.2917V17.125C9.20768 17.3584 9.02435 17.5417 8.79102 17.5417H2.95768C2.72435 17.5417 2.54102 17.3584 2.54102 17.125V11.2917C2.54102 11.0584 2.72435 10.875 2.95768 10.875Z" fill="#000814"/>
</svg>
