<svg width="24" height="24" viewBox="0 0 24 24" fill="none" xmlns="http://www.w3.org/2000/svg">
<path d="M12.6658 11.5L19.5258 4.64C19.7258 4.44 19.7258 4.13 19.5258 3.93L19.2458 3.65C19.0458 3.45 18.7358 3.45 18.5358 3.65L11.6758 10.51L4.81578 3.65C4.61578 3.45 4.30578 3.45 4.10578 3.65L3.82578 3.93C3.62578 4.13 3.62578 4.44 3.82578 4.64L10.6858 11.5L3.82578 18.36C3.62578 18.56 3.62578 18.87 3.82578 19.07L4.10578 19.35C4.30578 19.55 4.61578 19.55 4.81578 19.35L11.6758 12.49L18.5358 19.35C18.7358 19.55 19.0458 19.55 19.2458 19.35L19.5258 19.07C19.7258 18.87 19.7258 18.56 19.5258 18.36L12.6658 11.5Z" fill="#000814"/>
</svg>
