<svg width="48" height="48" viewBox="0 0 48 48" fill="none" xmlns="http://www.w3.org/2000/svg">
<path d="M37.3651 14.3999C37.3651 12.7271 37.3651 10.7983 37.3651 9.06644C37.3651 8.69824 37.0666 8.39992 36.6984 8.39994C25.8877 8.40045 15.077 8.39996 4.26627 8.4001C3.89808 8.40011 3.59961 8.69858 3.59961 9.06677C3.59967 17.1314 3.59959 25.196 3.59966 33.2606C3.59966 33.6287 3.89814 33.9272 4.26633 33.9272C12.0165 33.9272 19.7667 33.9272 27.5169 33.9272C27.5169 35.5959 27.5169 37.2646 27.5169 38.9332C27.5169 39.3014 27.8153 39.5999 28.1835 39.5999C33.3667 39.5999 38.5498 39.5999 43.7329 39.5999C44.1011 39.5999 44.3996 39.3013 44.3996 38.9331C44.3996 30.8848 44.3996 23.115 44.3996 15.0667C44.3996 14.6985 44.1011 14.3999 43.7329 14.3999C41.6103 14.3999 39.4877 14.3999 37.3651 14.3999ZM6.41343 31.0909C6.41343 24.4727 6.41343 17.8546 6.41343 11.2364C15.7927 11.2364 25.172 11.2364 34.5513 11.2364C34.5513 12.1819 34.5513 13.4545 34.5513 14.3999C32.4287 14.3999 30.3061 14.3999 28.1835 14.3999C27.8153 14.3999 27.5169 14.6985 27.5169 15.0667C27.5169 20.493 27.5169 25.6409 27.5169 31.0909C20.4824 31.0909 13.4479 31.0909 6.41343 31.0909ZM41.5858 36.7636C37.8341 36.7636 34.0824 36.7636 30.3307 36.7636C30.3307 30.1454 30.3307 23.8544 30.3307 17.2363C34.0824 17.2363 37.8341 17.2363 41.5858 17.2363C41.5858 23.8544 41.5858 30.1454 41.5858 36.7636ZM24.7031 38.9336C24.7031 39.3018 24.4046 39.5999 24.0364 39.5999C21.1981 39.5999 18.3598 39.5999 15.5215 39.5999C15.1533 39.5999 14.8548 39.3018 14.8548 38.9336C14.8548 38.2097 14.8548 37.3089 14.8548 36.5851C14.8548 36.2169 15.1533 35.9188 15.5215 35.9188C18.3598 35.9188 21.1981 35.9188 24.0364 35.9188C24.4046 35.9188 24.7031 36.2169 24.7031 36.5851C24.7031 37.3089 24.7031 38.2097 24.7031 38.9336Z" fill="#C1C1C6"/>
<path fill-rule="evenodd" clip-rule="evenodd" d="M28.5996 14.3999C28.0473 14.3999 27.5996 14.8476 27.5996 15.3999V38.5999C27.5996 39.1522 28.0473 39.5999 28.5996 39.5999H43.3996C43.9519 39.5999 44.3996 39.1522 44.3996 38.5999V15.3999C44.3996 14.8476 43.9519 14.3999 43.3996 14.3999H28.5996ZM33.3996 19.1999C32.8473 19.1999 32.3996 19.6476 32.3996 20.1999V21.7999C32.3996 22.3522 32.8473 22.7999 33.3996 22.7999H38.5996C39.1519 22.7999 39.5996 22.3522 39.5996 21.7999V20.1999C39.5996 19.6476 39.1519 19.1999 38.5996 19.1999H33.3996Z" fill="#9E9EA6"/>
</svg>
