<svg width="24" height="24" viewBox="0 0 24 24" fill="none" xmlns="http://www.w3.org/2000/svg">
<path fill-rule="evenodd" clip-rule="evenodd" d="M16.3 6.29999C16.3 8.67001 14.37 10.6 12 10.6C9.63 10.6 7.7 8.67001 7.7 6.29999C7.7 3.92999 9.63 2 12 2C14.37 2 16.3 3.92999 16.3 6.29999ZM14.9 6.29999C14.9 4.70001 13.6 3.39999 12 3.39999C10.4 3.39999 9.1 4.70001 9.1 6.29999C9.1 7.89999 10.4 9.20001 12 9.20001C13.6 9.20001 14.9 7.89999 14.9 6.29999Z" fill="#000814"/>
<path fill-rule="evenodd" clip-rule="evenodd" d="M3 17C3 14.79 4.79 13 7 13H17C19.21 13 21 14.79 21 17V21.5C21 21.78 20.78 22 20.5 22H3.5C3.22 22 3 21.78 3 21.5V17ZM4.4 17V20.6H19.6V17C19.6 15.57 18.43 14.4 17 14.4H7C5.57 14.4 4.4 15.57 4.4 17Z" fill="#000814"/>
</svg>
