<svg width="24" height="24" viewBox="0 0 24 24" fill="none" xmlns="http://www.w3.org/2000/svg">
<path d="M18.5517 7.17258C18.5517 6.41969 18.5517 5.6668 18.5517 4.91391C18.5517 4.63775 18.3279 4.41389 18.0517 4.4139C12.8678 4.41414 7.6839 4.41391 2.5 4.41397C2.22385 4.41398 2 4.63784 2 4.91398C2.00003 8.71857 1.99999 12.5232 2.00002 16.3278C2.00003 16.6039 2.22388 16.8278 2.50002 16.8278C6.2414 16.8278 9.98278 16.8278 13.7242 16.8278C13.7242 17.5806 13.7242 18.3335 13.7242 19.0864C13.7242 19.3625 13.948 19.5864 14.2242 19.5864C16.6494 19.5864 19.0747 19.5864 21.5 19.5864C21.7762 19.5864 22 19.3625 22 19.0864C22 15.2818 22 11.4772 22 7.67258C22 7.39644 21.7762 7.17258 21.5 7.17258C20.5173 7.17258 19.5345 7.17258 18.5517 7.17258ZM3.37932 15.4484C3.37932 12.23 3.37932 9.01166 3.37932 5.79327C7.97702 5.79327 12.5747 5.79327 17.1724 5.79327C17.1724 6.25304 17.1724 6.71281 17.1724 7.17258C16.1897 7.17258 15.2069 7.17258 14.2242 7.17258C13.948 7.17258 13.7242 7.39644 13.7242 7.67258C13.7242 10.2645 13.7242 12.8565 13.7242 15.4484C10.2759 15.4484 6.8276 15.4484 3.37932 15.4484ZM20.6207 18.2071C18.7816 18.2071 16.9425 18.2071 15.1035 18.2071C15.1035 14.9887 15.1035 11.7703 15.1035 8.55189C16.9425 8.55189 18.7816 8.55189 20.6207 8.55189C20.6207 11.7703 20.6207 14.9887 20.6207 18.2071ZM12.3448 19.0865C12.3448 19.3626 12.121 19.5864 11.8448 19.5864C10.569 19.5864 9.29312 19.5864 8.01725 19.5864C7.74111 19.5864 7.51725 19.3626 7.51725 19.0865C7.51725 18.832 7.51725 18.5506 7.51725 18.2961C7.51725 18.02 7.74111 17.7962 8.01725 17.7962C9.29312 17.7962 10.569 17.7962 11.8448 17.7962C12.121 17.7962 12.3448 18.02 12.3448 18.2961C12.3448 18.5506 12.3448 18.832 12.3448 19.0865ZM19.2414 10.8105C19.2414 11.0867 19.0175 11.3105 18.7414 11.3105C18.1552 11.3105 17.569 11.3105 16.9828 11.3105C16.7066 11.3105 16.4828 11.0867 16.4828 10.8105C16.4828 10.6841 16.4828 10.5576 16.4828 10.4312C16.4828 10.1551 16.7066 9.9312 16.9828 9.9312C17.569 9.9312 18.1552 9.9312 18.7414 9.9312C19.0175 9.9312 19.2414 10.1551 19.2414 10.4312C19.2414 10.5576 19.2414 10.6841 19.2414 10.8105Z" fill="#000814"/>
</svg>
