<svg width="40" height="40" viewBox="0 0 40 40" fill="none" xmlns="http://www.w3.org/2000/svg">
<rect width="40" height="40" rx="20" fill="#E5E5E6"/>
<path d="M25.636 13.0868C25.636 15.8961 23.255 18.1735 20.318 18.1735C17.3809 18.1735 15 15.8961 15 13.0868C15 10.2774 17.3809 8 20.318 8C23.255 8 25.636 10.2774 25.636 13.0868Z" fill="#9E9EA6"/>
<path d="M11 27.4865C11 23.6205 14.134 20.4865 18 20.4865H23C26.866 20.4865 30 23.6205 30 27.4865V28.8864C30 30.5433 28.6569 31.8865 27 31.8865H14C12.3431 31.8865 11 30.5433 11 28.8865V27.4865Z" fill="#9E9EA6"/>
</svg>
