<svg width="241" height="38" viewBox="0 0 241 38" fill="none" xmlns="http://www.w3.org/2000/svg">
<path d="M86.2783 11.6756H96.0283L103.215 26.9222L110.844 11.6756H120.578L107.068 36.9358H99.7888L86.2783 11.6756Z" fill="black"/>
<path d="M208.609 11.6756C204.048 11.6756 200.246 13.4298 198.166 17.2517V11.6756H189.377V36.9358H198.166V26.0853C198.166 21.3089 200.088 19.8056 205.374 19.8056C206.521 19.8056 210.799 19.7977 210.799 19.7977V11.6756H208.609Z" fill="black"/>
<path d="M225.929 11.1699C217.095 11.1699 211.899 14.0217 210.637 19.7958H219.514C219.941 18.1063 222.135 17.3242 225.79 17.3242C230.186 17.3242 232.153 18.5453 232.153 21.7557C232.153 21.7557 230.178 21.8341 221.899 21.9145C213.616 21.9968 209.998 25.0387 209.998 29.8132C209.998 34.5877 213.934 37.4375 220.572 37.4375C225.583 37.4375 229.67 35.8538 232.289 33.0805V36.9318H240.393V20.862C240.393 14.249 235.997 11.1719 225.927 11.1719M222.586 31.4713C219.748 31.4713 218.511 30.7814 218.511 29.2213C218.511 27.9355 219.355 27.0967 221.487 26.9693C223.618 26.8438 232.289 26.8301 232.289 26.8301V26.9889C232.289 29.4526 228.125 31.4694 222.586 31.4694" fill="black"/>
<path d="M134.419 11.1699C125.585 11.1699 120.389 14.0217 119.127 19.7958H128.004C128.432 18.1063 130.625 17.3242 134.28 17.3242C138.676 17.3242 140.643 18.5453 140.643 21.7557C140.643 21.7557 138.668 21.8341 130.389 21.9145C122.106 21.9968 118.488 25.0387 118.488 29.8132C118.488 34.5877 122.425 37.4375 129.063 37.4375C134.073 37.4375 138.16 35.8538 140.78 33.0805V36.9318H148.883V20.862C148.883 14.249 144.487 11.1719 134.417 11.1719M131.077 31.4713C128.238 31.4713 127.002 30.7814 127.002 29.2213C127.002 27.9355 127.846 27.0967 129.977 26.9693C132.108 26.8438 140.78 26.8301 140.78 26.8301V26.9889C140.78 29.4526 136.615 31.4694 131.077 31.4694" fill="black"/>
<path d="M176.747 0V15.672C174.229 12.8712 170.34 11.1719 165.716 11.1719C157.064 11.1719 151.709 16.2247 151.709 24.3076C151.709 32.3905 157.019 37.4414 165.716 37.4414C170.384 37.4414 174.217 35.7695 176.747 32.9491V36.9377H185.581V0H176.747ZM168.554 30.6442C163.289 30.6442 160.681 29.1507 160.681 24.3076C160.681 19.4645 163.291 17.9691 168.554 17.9691C173.817 17.9691 176.747 19.4508 176.747 24.3076C176.747 29.1644 173.864 30.6442 168.554 30.6442Z" fill="black"/>
<path d="M88.9585 36.9357L76.9503 23.2806L87.1183 11.6756H77.384L64.989 26.54V0H56.2451V36.9357H64.989L71.7501 29.2154L78.5365 36.9357H88.9585Z" fill="black"/>
<path d="M36.8294 0H0V9.23736H36.8294V0Z" fill="black"/>
<path d="M36.8294 27.7141H0V36.9514H36.8294V27.7141Z" fill="black"/>
</svg>
